<?xml version="1.0"?>
<svg width="642" height="261" xmlns="http://www.w3.org/2000/svg" xmlns:svg="http://www.w3.org/2000/svg" xmlns:xlink="http://www.w3.org/1999/xlink">
 <g class="layer">
  <title>Layer 1</title>
  <g id="svg_1">
   <path d="m241,7a6,6 0 0 1 6,-6l148,0a6,6 0 0 1 6,6l0,188a6,6 0 0 1 -6,6l-148,0a6,6 0 0 1 -6,-6l0,-188z" fill="#fff" id="svg_2" stroke="#282c33" stroke-width="2"/>
   <path d="m361,51a6,6 0 0 1 6,-6l28,0a6,6 0 0 1 6,6l0,18a6,6 0 0 1 -6,6l-28,0a6,6 0 0 1 -6,-6l0,-18z" fill="#fff" fill-opacity="0" id="svg_3" stroke="#000" stroke-opacity="0" stroke-width="2"/>
   <use id="svg_4" transform="matrix(1 0 0 1 667.796 362.167)" x="-299" xlink:href="#a" y="-299"/>
   <path d="m291,17a6,6 0 0 1 6,-6l48,0a6,6 0 0 1 6,6l0,18a6,6 0 0 1 -6,6l-48,0a6,6 0 0 1 -6,-6l0,-18z" fill="#fff" fill-opacity="0" id="svg_5" stroke="#000" stroke-opacity="0" stroke-width="2"/>
   <use id="svg_6" transform="matrix(1 0 0 1 585.432 332.778)" x="-299" xlink:href="#b" y="-299"/>
   <path d="m361,173a6,6 0 0 1 6,-6l28,0a6,6 0 0 1 6,6l0,18a6,6 0 0 1 -6,6l-28,0a6,6 0 0 1 -6,-6l0,-18z" fill="#fff" fill-opacity="0" id="svg_7" stroke="#000" stroke-opacity="0" stroke-width="2"/>
   <use id="svg_8" transform="matrix(1 0 0 1 668.148 484.167)" x="-299" xlink:href="#c" y="-299"/>
   <path d="m359.55,73a6,6 0 0 1 6,-6l28,0a6,6 0 0 1 6,6l0,18a6,6 0 0 1 -6,6l-28,0a6,6 0 0 1 -6,-6l0,-18z" fill="#fff" fill-opacity="0" id="svg_9" stroke="#000" stroke-opacity="0" stroke-width="2"/>
   <use id="svg_10" transform="matrix(1 0 0 1 666.344 384.167)" x="-299" xlink:href="#d" y="-299"/>
   <path d="m241,73a6,6 0 0 1 6,-6l28,0a6,6 0 0 1 6,6l0,18a6,6 0 0 1 -6,6l-28,0a6,6 0 0 1 -6,-6l0,-18z" fill="#fff" fill-opacity="0" id="svg_11" stroke="#000" stroke-opacity="0" stroke-width="2"/>
   <use id="svg_12" transform="matrix(1 0 0 1 547.796 384.167)" x="-299" xlink:href="#e" y="-299"/>
   <path d="m359.55,133a6,6 0 0 1 6,-6l28,0a6,6 0 0 1 6,6l0,18a6,6 0 0 1 -6,6l-28,0a6,6 0 0 1 -6,-6l0,-18z" fill="#fff" fill-opacity="0" id="svg_13" stroke="#000" stroke-opacity="0" stroke-width="2"/>
   <use id="svg_14" transform="matrix(1 0 0 1 663.77 444.167)" x="-299" xlink:href="#f" y="-299"/>
   <path d="m481,7a6,6 0 0 1 6,-6l148,0a6,6 0 0 1 6,6l0,188a6,6 0 0 1 -6,6l-148,0a6,6 0 0 1 -6,-6l0,-188z" fill="#fff" id="svg_15" stroke="#282c33" stroke-width="2"/>
   <path d="m481,51a6,6 0 0 1 6,-6l28,0a6,6 0 0 1 6,6l0,18a6,6 0 0 1 -6,6l-28,0a6,6 0 0 1 -6,-6l0,-18z" fill="#fff" fill-opacity="0" id="svg_19" stroke="#000" stroke-opacity="0" stroke-width="2"/>
   <use id="svg_20" transform="matrix(1 0 0 1 786.315 362.167)" x="-299" xlink:href="#i" y="-299"/>
   <path d="m481,73a6,6 0 0 1 6,-6l28,0a6,6 0 0 1 6,6l0,18a6,6 0 0 1 -6,6l-28,0a6,6 0 0 1 -6,-6l0,-18z" fill="#fff" fill-opacity="0" id="svg_21" stroke="#000" stroke-opacity="0" stroke-width="2"/>
   <use id="svg_22" transform="matrix(1 0 0 1 787.056 384.167)" x="-299" xlink:href="#j" y="-299"/>
   <path d="m481,133a6,6 0 0 1 6,-6l28,0a6,6 0 0 1 6,6l0,18a6,6 0 0 1 -6,6l-28,0a6,6 0 0 1 -6,-6l0,-18z" fill="#fff" fill-opacity="0" id="svg_23" stroke="#000" stroke-opacity="0" stroke-width="2"/>
   <use id="svg_24" transform="matrix(1 0 0 1 785.222 444.167)" x="-299" xlink:href="#f" y="-299"/>
   <path d="m481.32,177a6,6 0 0 1 6,-6l28,0a6,6 0 0 1 6,6l0,18a6,6 0 0 1 -6,6l-28,0a6,6 0 0 1 -6,-6l0,-18z" fill="#fff" fill-opacity="0" id="svg_25" stroke="#000" stroke-opacity="0" stroke-width="2"/>
   <use id="svg_26" transform="matrix(1 0 0 1 786.285 488.167)" x="-299" xlink:href="#k" y="-299"/>
   <path d="m1,7a6,6 0 0 1 6,-6l148,0a6,6 0 0 1 6,6l0,188a6,6 0 0 1 -6,6l-148,0a6,6 0 0 1 -6,-6l0,-188z" fill="#fff" id="svg_27" stroke="#282c33" stroke-width="2" transform="matrix(1 0 0 1 0 0)"/>
   <path d="m162,82l78,0" fill="none" id="svg_33" stroke="#282c33" stroke-linecap="round" stroke-width="2"/>
   <path d="m120.68,177a6,6 0 0 1 6,-6l28,0a6,6 0 0 1 6,6l0,18a6,6 0 0 1 -6,6l-28,0a6,6 0 0 1 -6,-6l0,-18z" fill="#fff" fill-opacity="0" id="svg_34" stroke="#000" stroke-opacity="0" stroke-width="2"/>
   <use id="svg_35" transform="matrix(1 0 0 1 425.641 488.167)" x="-299" xlink:href="#k" y="-299"/>
   <path d="m402,62l78,0m-78,16.68l78,0m-78,63.32l78,0m-78,40l78,0m-318.32,2l18.32,0m0,76l0,-76m0,76l280,0m2,0l0,-76" fill="none" id="svg_36" stroke="#282c33" stroke-linecap="round" stroke-width="2"/>
   <path d="m472,181c0,5.52 -4.48,10 -10,10s-10,-4.48 -10,-10s4.48,-10 10,-10s10,4.48 10,10z" fill="#fff" id="svg_37" stroke="#282c33" stroke-width="2"/>
   <path d="m121,133a6,6 0 0 1 6,-6l28,0a6,6 0 0 1 6,6l0,18a6,6 0 0 1 -6,6l-28,0a6,6 0 0 1 -6,-6l0,-18z" fill="#fff" fill-opacity="0" id="svg_38" stroke="#000" stroke-opacity="0" stroke-width="2"/>
   <use id="svg_39" transform="matrix(1 0 0 1 425.222 444.167)" x="-299" xlink:href="#f" y="-299"/>
   <path d="m161.13,142l38.87,0m2,98l0,-98m0,100l238,0m1.28,0l0,-100" fill="none" id="svg_40" stroke="#282c33" stroke-linecap="round" stroke-width="2"/>
   <path d="m451.98,142c0,5.52 -4.48,10 -10,10s-10,-4.48 -10,-10s4.48,-10 10,-10s10,4.48 10,10z" fill="#fff" id="svg_41" stroke="#282c33" stroke-width="2"/>
   <defs transform="translate(-299 -299)">
    <path d="m30,-248c118,-7 216,8 213,122c-3,78 -43,126 -121,126l-92,0l0,-248zm33,221c89,8 146,-16 146,-99s-60,-101 -146,-95l0,194" fill="#282c33" id="o"/>
    <path d="m101,-251c82,-7 93,87 43,132l-62,55c-11,11 -23,22 -29,37l129,0l0,27l-164,0c2,-99 128,-94 128,-182c0,-28 -16,-43 -45,-43s-46,15 -49,41l-32,-3c6,-41 34,-60 81,-64" fill="#282c33" id="p"/>
    <path d="m27,0l0,-27l64,0l0,-190l-56,39l0,-29l58,-41l29,0l0,221l61,0l0,27l-156,0" fill="#282c33" id="q"/>
    <g id="a">
     <use id="svg_42" transform="matrix(0.03703703703703702,0,0,0.03703703703703702,0,0)" xlink:href="#o"/>
     <use id="svg_43" transform="matrix(0.03703703703703702,0,0,0.03703703703703702,9.592592592592588,0)" xlink:href="#p"/>
     <use id="svg_44" transform="matrix(0.03703703703703702,0,0,0.03703703703703702,16.999999999999993,0)" xlink:href="#q"/>
    </g>
    <path d="m30,0l0,-248l187,0l0,28l-154,0l0,79l144,0l0,27l-144,0l0,87l162,0l0,27l-195,0" fill="#282c33" id="r"/>
    <path d="m185,-189c-5,-48 -123,-54 -124,2c14,75 158,14 163,119c3,78 -121,87 -175,55c-17,-10 -28,-26 -33,-46l33,-7c5,56 141,63 141,-1c0,-78 -155,-14 -162,-118c-5,-82 145,-84 179,-34c5,7 8,16 11,25" fill="#282c33" id="s"/>
    <path d="m30,-248c87,1 191,-15 191,75c0,78 -77,80 -158,76l0,97l-33,0l0,-248zm33,125c57,0 124,11 124,-50c0,-59 -68,-47 -124,-48l0,98" fill="#282c33" id="t"/>
    <path d="m126,-127c33,6 58,20 58,59c0,88 -139,92 -164,29c-3,-8 -5,-16 -6,-25l32,-3c6,27 21,44 54,44c32,0 52,-15 52,-46c0,-38 -36,-46 -79,-43l0,-28c39,1 72,-4 72,-42c0,-27 -17,-43 -46,-43c-28,0 -47,15 -49,41l-32,-3c6,-42 35,-63 81,-64c48,-1 79,21 79,65c0,36 -21,52 -52,59" fill="#282c33" id="u"/>
    <g id="b">
     <use id="svg_45" transform="matrix(0.06172839506172839,0,0,0.06172839506172839,0,0)" xlink:href="#r"/>
     <use id="svg_46" transform="matrix(0.06172839506172839,0,0,0.06172839506172839,14.814814814814813,0)" xlink:href="#s"/>
     <use id="svg_47" transform="matrix(0.06172839506172839,0,0,0.06172839506172839,29.629629629629626,0)" xlink:href="#t"/>
     <use id="svg_48" transform="matrix(0.06172839506172839,0,0,0.06172839506172839,44.44444444444444,0)" xlink:href="#u"/>
     <use id="svg_49" transform="matrix(0.06172839506172839,0,0,0.06172839506172839,56.79012345679012,0)" xlink:href="#p"/>
    </g>
    <path d="m137,0l-34,0l-101,-248l35,0l83,218l83,-218l36,0" fill="#282c33" id="v"/>
    <g id="c">
     <use id="svg_50" transform="matrix(0.03703703703703702,0,0,0.03703703703703702,0,0)" xlink:href="#u"/>
     <use id="svg_51" transform="matrix(0.03703703703703702,0,0,0.03703703703703702,7.407407407407404,0)" xlink:href="#v"/>
     <use id="svg_52" transform="matrix(0.03703703703703702,0,0,0.03703703703703702,16.29629629629629,0)" xlink:href="#u"/>
    </g>
    <g id="d">
     <use id="svg_53" transform="matrix(0.03703703703703702,0,0,0.03703703703703702,0,0)" xlink:href="#o"/>
     <use id="svg_54" transform="matrix(0.03703703703703702,0,0,0.03703703703703702,9.592592592592588,0)" xlink:href="#p"/>
     <use id="svg_55" transform="matrix(0.03703703703703702,0,0,0.03703703703703702,16.999999999999993,0)" xlink:href="#p"/>
    </g>
    <path d="m155,-56l0,56l-30,0l0,-56l-117,0l0,-25l114,-167l33,0l0,167l35,0l0,25l-35,0zm-30,-156c-27,46 -58,90 -88,131l88,0l0,-131" fill="#282c33" id="w"/>
    <g id="e">
     <use id="svg_56" transform="matrix(0.03703703703703702,0,0,0.03703703703703702,0,0)" xlink:href="#o"/>
     <use id="svg_57" transform="matrix(0.03703703703703702,0,0,0.03703703703703702,9.592592592592588,0)" xlink:href="#u"/>
     <use id="svg_58" transform="matrix(0.03703703703703702,0,0,0.03703703703703702,16.999999999999993,0)" xlink:href="#w"/>
    </g>
    <path d="m143,4c-82,0 -121,-48 -125,-129c-5,-107 100,-154 193,-111c17,8 29,25 37,43l-32,9c-13,-25 -37,-40 -76,-40c-61,0 -88,39 -88,99c0,61 29,100 91,101c35,0 62,-11 79,-27l0,-45l-74,0l0,-28l105,0l0,86c-25,25 -61,42 -110,42" fill="#282c33" id="x"/>
    <path d="m190,0l-132,-211l1,211l-29,0l0,-248l39,0l133,213l-2,-213l31,0l0,248l-41,0" fill="#282c33" id="y"/>
    <g id="f">
     <use id="svg_59" transform="matrix(0.03703703703703702,0,0,0.03703703703703702,0,0)" xlink:href="#x"/>
     <use id="svg_60" transform="matrix(0.03703703703703702,0,0,0.03703703703703702,10.370370370370367,0)" xlink:href="#y"/>
     <use id="svg_61" transform="matrix(0.03703703703703702,0,0,0.03703703703703702,19.962962962962955,0)" xlink:href="#o"/>
    </g>
    <path d="m205,0l-28,-72l-113,0l-28,72l-35,0l101,-248l38,0l99,248l-34,0zm-38,-99l-47,-123c-12,45 -31,82 -46,123l93,0" fill="#282c33" id="z"/>
    <path d="m127,-220l0,220l-34,0l0,-220l-85,0l0,-28l204,0l0,28l-85,0" fill="#282c33" id="A"/>
    <path d="m30,0l0,-248l33,0l0,221l125,0l0,27l-158,0" fill="#282c33" id="B"/>
    <g id="g">
     <use id="svg_62" transform="matrix(0.06172839506172839,0,0,0.06172839506172839,0,0)" xlink:href="#t"/>
     <use id="svg_63" transform="matrix(0.06172839506172839,0,0,0.06172839506172839,13.148148148148147,0)" xlink:href="#z"/>
     <use id="svg_64" transform="matrix(0.06172839506172839,0,0,0.06172839506172839,27.962962962962962,0)" xlink:href="#y"/>
     <use id="svg_65" transform="matrix(0.06172839506172839,0,0,0.06172839506172839,43.95061728395061,0)" xlink:href="#A"/>
     <use id="svg_66" transform="matrix(0.06172839506172839,0,0,0.06172839506172839,55.80246913580247,0)" xlink:href="#z"/>
     <use id="svg_67" transform="matrix(0.06172839506172839,0,0,0.06172839506172839,70.61728395061728,0)" xlink:href="#B"/>
     <use id="svg_68" transform="matrix(0.06172839506172839,0,0,0.06172839506172839,82.96296296296296,0)" xlink:href="#B"/>
     <use id="svg_69" transform="matrix(0.06172839506172839,0,0,0.06172839506172839,95.30864197530865,0)" xlink:href="#z"/>
    </g>
    <path d="m140,-251c81,0 123,46 123,126c0,79 -44,129 -123,129c-81,0 -123,-49 -123,-129s42,-126 123,-126zm0,227c63,0 89,-41 89,-101s-29,-99 -89,-99c-61,0 -89,39 -89,99s28,100 89,101" fill="#282c33" id="C"/>
    <g id="h">
     <use id="svg_70" transform="matrix(0.06172839506172839,0,0,0.06172839506172839,0,0)" xlink:href="#C"/>
     <use id="svg_71" transform="matrix(0.06172839506172839,0,0,0.06172839506172839,17.28395061728395,0)" xlink:href="#B"/>
     <use id="svg_72" transform="matrix(0.06172839506172839,0,0,0.06172839506172839,29.629629629629626,0)" xlink:href="#r"/>
     <use id="svg_73" transform="matrix(0.06172839506172839,0,0,0.06172839506172839,44.44444444444444,0)" xlink:href="#o"/>
    </g>
    <g id="i">
     <use id="svg_74" transform="matrix(0.03703703703703702,0,0,0.03703703703703702,0,0)" xlink:href="#s"/>
     <use id="svg_75" transform="matrix(0.03703703703703702,0,0,0.03703703703703702,8.888888888888886,0)" xlink:href="#o"/>
     <use id="svg_76" transform="matrix(0.03703703703703702,0,0,0.03703703703703702,18.481481481481474,0)" xlink:href="#z"/>
    </g>
    <path d="m212,-179c-10,-28 -35,-45 -73,-45c-59,0 -87,40 -87,99c0,60 29,101 89,101c43,0 62,-24 78,-52l27,14c-18,38 -51,66 -107,66c-80,0 -117,-50 -121,-129c-6,-104 99,-153 187,-111c19,9 31,26 39,46" fill="#282c33" id="D"/>
    <g id="j">
     <use id="svg_77" transform="matrix(0.03703703703703702,0,0,0.03703703703703702,0,0)" xlink:href="#s"/>
     <use id="svg_78" transform="matrix(0.03703703703703702,0,0,0.03703703703703702,8.888888888888886,0)" xlink:href="#D"/>
     <use id="svg_79" transform="matrix(0.03703703703703702,0,0,0.03703703703703702,18.481481481481474,0)" xlink:href="#B"/>
    </g>
    <g id="k">
     <use id="svg_80" transform="matrix(0.03703703703703702,0,0,0.03703703703703702,0,0)" xlink:href="#v"/>
     <use id="svg_81" transform="matrix(0.03703703703703702,0,0,0.03703703703703702,8.888888888888886,0)" xlink:href="#D"/>
     <use id="svg_82" transform="matrix(0.03703703703703702,0,0,0.03703703703703702,18.481481481481474,0)" xlink:href="#D"/>
    </g>
    <path d="m195,-316c-3,24 -8,48 -35,47c-28,-1 -64,-43 -75,0l-16,0c4,-23 8,-48 36,-47s64,44 74,0l16,0zm-5,316l-132,-211l1,211l-29,0l0,-248l39,0l133,213l-2,-213l31,0l0,248l-41,0" fill="#282c33" id="E"/>
    <g id="l">
     <use id="svg_83" transform="matrix(0.03703703703703702,0,0,0.03703703703703702,0,0)" xlink:href="#s"/>
     <use id="svg_84" transform="matrix(0.03703703703703702,0,0,0.03703703703703702,8.888888888888886,0)" xlink:href="#r"/>
     <use id="svg_85" transform="matrix(0.03703703703703702,0,0,0.03703703703703702,17.77777777777777,0)" xlink:href="#E"/>
     <use id="svg_86" transform="matrix(0.03703703703703702,0,0,0.03703703703703702,27.37037037037036,0)" xlink:href="#z"/>
     <use id="svg_87" transform="matrix(0.03703703703703702,0,0,0.03703703703703702,36.259259259259245,0)" xlink:href="#B"/>
    </g>
    <path d="m240,0l2,-218c-23,76 -54,145 -80,218l-23,0l-81,-218l1,218l-29,0l0,-248l44,0l77,211c21,-75 51,-140 76,-211l43,0l0,248l-30,0" fill="#282c33" id="F"/>
    <path d="m109,-269c9,-18 26,-28 38,-43l37,0l0,5l-55,38l-20,0zm31,18c81,0 123,46 123,126c0,79 -44,129 -123,129c-81,0 -123,-49 -123,-129s42,-126 123,-126zm0,227c63,0 89,-41 89,-101s-29,-99 -89,-99c-61,0 -89,39 -89,99s28,100 89,101" fill="#282c33" id="G"/>
    <path d="m232,-93c-1,65 -40,97 -104,97c-61,0 -100,-32 -100,-94l0,-158l33,0c8,89 -33,224 67,224c102,0 64,-133 71,-224l33,0l0,155" fill="#282c33" id="H"/>
    <g id="m">
     <use id="svg_88" transform="matrix(0.06172839506172839,0,0,0.06172839506172839,0,0)" xlink:href="#F"/>
     <use id="svg_89" transform="matrix(0.06172839506172839,0,0,0.06172839506172839,18.456790123456788,0)" xlink:href="#G"/>
     <use id="svg_90" transform="matrix(0.06172839506172839,0,0,0.06172839506172839,35.74074074074073,0)" xlink:href="#o"/>
     <use id="svg_91" transform="matrix(0.06172839506172839,0,0,0.06172839506172839,51.728395061728385,0)" xlink:href="#H"/>
     <use id="svg_92" transform="matrix(0.06172839506172839,0,0,0.06172839506172839,67.71604938271604,0)" xlink:href="#B"/>
     <use id="svg_93" transform="matrix(0.06172839506172839,0,0,0.06172839506172839,80.06172839506172,0)" xlink:href="#C"/>
    </g>
    <path d="m233,-177c-1,41 -23,64 -60,70l70,107l-38,0l-65,-103l-77,0l0,103l-33,0l0,-248c88,3 205,-21 203,71zm-170,48c60,-2 137,13 137,-47c0,-61 -80,-42 -137,-45l0,92" fill="#282c33" id="I"/>
    <g id="n">
     <use id="svg_94" transform="matrix(0.06172839506172839,0,0,0.06172839506172839,0,0)" xlink:href="#B"/>
     <use id="svg_95" transform="matrix(0.06172839506172839,0,0,0.06172839506172839,12.345679012345679,0)" xlink:href="#o"/>
     <use id="svg_96" transform="matrix(0.06172839506172839,0,0,0.06172839506172839,28.333333333333332,0)" xlink:href="#I"/>
    </g>
   </defs>
   <text fill="#000000" font-family="Helvetica" font-size="21" id="svg_97" stroke="#282c33" stroke-width="0" text-anchor="middle" transform="matrix(1 0 0 1 0 0)" x="80.67" xml:space="preserve" y="40.67">LDR MODULE</text>
   <text fill="#000000" font-family="Helvetica" font-size="14" id="svg_98" stroke="#282c33" stroke-width="0" text-anchor="middle" x="125.67" xml:space="preserve" y="87.67">SIGNAL</text>
   <text fill="#000000" font-family="Helvetica" font-size="21" id="svg_99" stroke="#282c33" stroke-width="0" text-anchor="middle" transform="matrix(1 0 0 1 0 0)" x="561.67" xml:space="preserve" y="30.67">OLED</text>
   <text fill="#000000" font-family="Helvetica" font-size="21" id="svg_100" stroke="#282c33" stroke-width="0" text-anchor="middle" x="566.67" xml:space="preserve" y="59.67">DISPLAY</text>
  </g>
 </g>
</svg>
