<svg xmlns="http://www.w3.org/2000/svg" xmlns:xlink="http://www.w3.org/1999/xlink" xmlns:lucid="lucid" width="642" height="261"><g transform="translate(-298.9999999791009 -298.9999999734525)" lucid:page-tab-id="0_0"><path d="M540 306a6 6 0 0 1 6-6h148a6 6 0 0 1 6 6v188a6 6 0 0 1-6 6H546a6 6 0 0 1-6-6z" stroke="#282c33" stroke-width="2" fill="#fff"/><path d="M660 350a6 6 0 0 1 6-6h28a6 6 0 0 1 6 6v18a6 6 0 0 1-6 6h-28a6 6 0 0 1-6-6z" stroke="#000" stroke-opacity="0" stroke-width="2" fill="#fff" fill-opacity="0"/><use xlink:href="#a" transform="matrix(1,0,0,1,665,349) translate(2.796296296296301 13.166666666666664)"/><path d="M590 316a6 6 0 0 1 6-6h48a6 6 0 0 1 6 6v18a6 6 0 0 1-6 6h-48a6 6 0 0 1-6-6z" stroke="#000" stroke-opacity="0" stroke-width="2" fill="#fff" fill-opacity="0"/><use xlink:href="#b" transform="matrix(1,0,0,1,595,315) translate(-9.567901234567898 17.77777777777778)"/><path d="M660 472a6 6 0 0 1 6-6h28a6 6 0 0 1 6 6v18a6 6 0 0 1-6 6h-28a6 6 0 0 1-6-6z" stroke="#000" stroke-opacity="0" stroke-width="2" fill="#fff" fill-opacity="0"/><use xlink:href="#c" transform="matrix(1,0,0,1,665,471) translate(3.1481481481481524 13.166666666666664)"/><path d="M658.55 372a6 6 0 0 1 6-6h28a6 6 0 0 1 6 6v18a6 6 0 0 1-6 6h-28a6 6 0 0 1-6-6z" stroke="#000" stroke-opacity="0" stroke-width="2" fill="#fff" fill-opacity="0"/><use xlink:href="#d" transform="matrix(1,0,0,1,663.5477285638477,371) translate(2.796296296296301 13.166666666666664)"/><path d="M540 372a6 6 0 0 1 6-6h28a6 6 0 0 1 6 6v18a6 6 0 0 1-6 6h-28a6 6 0 0 1-6-6z" stroke="#000" stroke-opacity="0" stroke-width="2" fill="#fff" fill-opacity="0"/><use xlink:href="#e" transform="matrix(1,0,0,1,545,371) translate(2.796296296296301 13.166666666666664)"/><path d="M658.55 432a6 6 0 0 1 6-6h28a6 6 0 0 1 6 6v18a6 6 0 0 1-6 6h-28a6 6 0 0 1-6-6z" stroke="#000" stroke-opacity="0" stroke-width="2" fill="#fff" fill-opacity="0"/><use xlink:href="#f" transform="matrix(1,0,0,1,663.5477285638477,431) translate(0.22222222222222854 13.166666666666664)"/><path d="M780 306a6 6 0 0 1 6-6h148a6 6 0 0 1 6 6v188a6 6 0 0 1-6 6H786a6 6 0 0 1-6-6z" stroke="#282c33" stroke-width="2" fill="#fff"/><path d="M780.32 306a6 6 0 0 1 6-6H934a6 6 0 0 1 6 6v51.33a6 6 0 0 1-6 6H786.32a6 6 0 0 1-6-6z" stroke="#000" stroke-opacity="0" stroke-width="2" fill="#fff" fill-opacity="0"/><use xlink:href="#g" transform="matrix(1,0,0,1,785.321571637945,305) translate(20.555555555555557 21.15277777777778)"/><use xlink:href="#h" transform="matrix(1,0,0,1,785.321571637945,305) translate(44.78395061728395 47.81944444444444)"/><path d="M780 350a6 6 0 0 1 6-6h28a6 6 0 0 1 6 6v18a6 6 0 0 1-6 6h-28a6 6 0 0 1-6-6z" stroke="#000" stroke-opacity="0" stroke-width="2" fill="#fff" fill-opacity="0"/><use xlink:href="#i" transform="matrix(1,0,0,1,785,349) translate(1.3148148148148202 13.166666666666664)"/><path d="M780 372a6 6 0 0 1 6-6h28a6 6 0 0 1 6 6v18a6 6 0 0 1-6 6h-28a6 6 0 0 1-6-6z" stroke="#000" stroke-opacity="0" stroke-width="2" fill="#fff" fill-opacity="0"/><use xlink:href="#j" transform="matrix(1,0,0,1,785,371) translate(2.0555555555555607 13.166666666666664)"/><path d="M780 432a6 6 0 0 1 6-6h28a6 6 0 0 1 6 6v18a6 6 0 0 1-6 6h-28a6 6 0 0 1-6-6z" stroke="#000" stroke-opacity="0" stroke-width="2" fill="#fff" fill-opacity="0"/><use xlink:href="#f" transform="matrix(1,0,0,1,785,431) translate(0.22222222222222854 13.166666666666664)"/><path d="M780.32 476a6 6 0 0 1 6-6h28a6 6 0 0 1 6 6v18a6 6 0 0 1-6 6h-28a6 6 0 0 1-6-6z" stroke="#000" stroke-opacity="0" stroke-width="2" fill="#fff" fill-opacity="0"/><use xlink:href="#k" transform="matrix(1,0,0,1,785.321571637945,475) translate(0.962962962962969 13.166666666666664)"/><path d="M300 306a6 6 0 0 1 6-6h148a6 6 0 0 1 6 6v188a6 6 0 0 1-6 6H306a6 6 0 0 1-6-6z" stroke="#282c33" stroke-width="2" fill="#fff"/><path d="M401.77 369.33a6 6 0 0 1 6-6h47.68a6 6 0 0 1 6 6v18a6 6 0 0 1-6 6h-47.68a6 6 0 0 1-6-6z" stroke="#000" stroke-opacity="0" stroke-width="2" fill="#fff" fill-opacity="0"/><use xlink:href="#l" transform="matrix(1,0,0,1,406.7738430740973,368.33333333333326) translate(3.166666666666675 13.166666666666664)"/><path d="M300 306a6 6 0 0 1 6-6h147.68a6 6 0 0 1 6 6v51.33a6 6 0 0 1-6 6H306a6 6 0 0 1-6-6z" stroke="#000" stroke-opacity="0" stroke-width="2" fill="#fff" fill-opacity="0"/><use xlink:href="#m" transform="matrix(1,0,0,1,305,304.99999999999994) translate(1.080246913580254 31.27777777777778)"/><use xlink:href="#n" transform="matrix(1,0,0,1,305,304.99999999999994) translate(104.59876543209876 31.27777777777778)"/><path d="M461 381h78" stroke="#282c33" stroke-width="2" stroke-linecap="round" fill="none"/><path d="M419.68 476a6 6 0 0 1 6-6h28a6 6 0 0 1 6 6v18a6 6 0 0 1-6 6h-28a6 6 0 0 1-6-6z" stroke="#000" stroke-opacity="0" stroke-width="2" fill="#fff" fill-opacity="0"/><use xlink:href="#k" transform="matrix(1,0,0,1,424.678428362055,475) translate(0.962962962962969 13.166666666666664)"/><path d="M701 361h78M701 377.68h78M701 441h78M701 481h78M460.68 483H479M479 559v-76M479 559h280M761 559v-76" stroke="#282c33" stroke-width="2" stroke-linecap="round" fill="none"/><path d="M771 480c0 5.52-4.48 10-10 10s-10-4.48-10-10 4.48-10 10-10 10 4.48 10 10z" stroke="#282c33" stroke-width="2" fill="#fff"/><path d="M420 432a6 6 0 0 1 6-6h28a6 6 0 0 1 6 6v18a6 6 0 0 1-6 6h-28a6 6 0 0 1-6-6z" stroke="#000" stroke-opacity="0" stroke-width="2" fill="#fff" fill-opacity="0"/><use xlink:href="#f" transform="matrix(1,0,0,1,425,431) translate(0.22222222222222854 13.166666666666664)"/><path d="M460.13 441H499M501 539v-98M501 541h238M740.28 541V441" stroke="#282c33" stroke-width="2" stroke-linecap="round" fill="none"/><path d="M750.98 441c0 5.52-4.48 10-10 10s-10-4.48-10-10 4.48-10 10-10 10 4.48 10 10z" stroke="#282c33" stroke-width="2" fill="#fff"/><defs><path fill="#282c33" d="M30-248c118-7 216 8 213 122C240-48 200 0 122 0H30v-248zM63-27c89 8 146-16 146-99s-60-101-146-95v194" id="o"/><path fill="#282c33" d="M101-251c82-7 93 87 43 132L82-64C71-53 59-42 53-27h129V0H18c2-99 128-94 128-182 0-28-16-43-45-43s-46 15-49 41l-32-3c6-41 34-60 81-64" id="p"/><path fill="#282c33" d="M27 0v-27h64v-190l-56 39v-29l58-41h29v221h61V0H27" id="q"/><g id="a"><use transform="matrix(0.03703703703703702,0,0,0.03703703703703702,0,0)" xlink:href="#o"/><use transform="matrix(0.03703703703703702,0,0,0.03703703703703702,9.592592592592588,0)" xlink:href="#p"/><use transform="matrix(0.03703703703703702,0,0,0.03703703703703702,16.999999999999993,0)" xlink:href="#q"/></g><path fill="#282c33" d="M30 0v-248h187v28H63v79h144v27H63v87h162V0H30" id="r"/><path fill="#282c33" d="M185-189c-5-48-123-54-124 2 14 75 158 14 163 119 3 78-121 87-175 55-17-10-28-26-33-46l33-7c5 56 141 63 141-1 0-78-155-14-162-118-5-82 145-84 179-34 5 7 8 16 11 25" id="s"/><path fill="#282c33" d="M30-248c87 1 191-15 191 75 0 78-77 80-158 76V0H30v-248zm33 125c57 0 124 11 124-50 0-59-68-47-124-48v98" id="t"/><path fill="#282c33" d="M126-127c33 6 58 20 58 59 0 88-139 92-164 29-3-8-5-16-6-25l32-3c6 27 21 44 54 44 32 0 52-15 52-46 0-38-36-46-79-43v-28c39 1 72-4 72-42 0-27-17-43-46-43-28 0-47 15-49 41l-32-3c6-42 35-63 81-64 48-1 79 21 79 65 0 36-21 52-52 59" id="u"/><g id="b"><use transform="matrix(0.06172839506172839,0,0,0.06172839506172839,0,0)" xlink:href="#r"/><use transform="matrix(0.06172839506172839,0,0,0.06172839506172839,14.814814814814813,0)" xlink:href="#s"/><use transform="matrix(0.06172839506172839,0,0,0.06172839506172839,29.629629629629626,0)" xlink:href="#t"/><use transform="matrix(0.06172839506172839,0,0,0.06172839506172839,44.44444444444444,0)" xlink:href="#u"/><use transform="matrix(0.06172839506172839,0,0,0.06172839506172839,56.79012345679012,0)" xlink:href="#p"/></g><path fill="#282c33" d="M137 0h-34L2-248h35l83 218 83-218h36" id="v"/><g id="c"><use transform="matrix(0.03703703703703702,0,0,0.03703703703703702,0,0)" xlink:href="#u"/><use transform="matrix(0.03703703703703702,0,0,0.03703703703703702,7.407407407407404,0)" xlink:href="#v"/><use transform="matrix(0.03703703703703702,0,0,0.03703703703703702,16.29629629629629,0)" xlink:href="#u"/></g><g id="d"><use transform="matrix(0.03703703703703702,0,0,0.03703703703703702,0,0)" xlink:href="#o"/><use transform="matrix(0.03703703703703702,0,0,0.03703703703703702,9.592592592592588,0)" xlink:href="#p"/><use transform="matrix(0.03703703703703702,0,0,0.03703703703703702,16.999999999999993,0)" xlink:href="#p"/></g><path fill="#282c33" d="M155-56V0h-30v-56H8v-25l114-167h33v167h35v25h-35zm-30-156c-27 46-58 90-88 131h88v-131" id="w"/><g id="e"><use transform="matrix(0.03703703703703702,0,0,0.03703703703703702,0,0)" xlink:href="#o"/><use transform="matrix(0.03703703703703702,0,0,0.03703703703703702,9.592592592592588,0)" xlink:href="#u"/><use transform="matrix(0.03703703703703702,0,0,0.03703703703703702,16.999999999999993,0)" xlink:href="#w"/></g><path fill="#282c33" d="M143 4C61 4 22-44 18-125c-5-107 100-154 193-111 17 8 29 25 37 43l-32 9c-13-25-37-40-76-40-61 0-88 39-88 99 0 61 29 100 91 101 35 0 62-11 79-27v-45h-74v-28h105v86C228-13 192 4 143 4" id="x"/><path fill="#282c33" d="M190 0L58-211 59 0H30v-248h39L202-35l-2-213h31V0h-41" id="y"/><g id="f"><use transform="matrix(0.03703703703703702,0,0,0.03703703703703702,0,0)" xlink:href="#x"/><use transform="matrix(0.03703703703703702,0,0,0.03703703703703702,10.370370370370367,0)" xlink:href="#y"/><use transform="matrix(0.03703703703703702,0,0,0.03703703703703702,19.962962962962955,0)" xlink:href="#o"/></g><path fill="#282c33" d="M205 0l-28-72H64L36 0H1l101-248h38L239 0h-34zm-38-99l-47-123c-12 45-31 82-46 123h93" id="z"/><path fill="#282c33" d="M127-220V0H93v-220H8v-28h204v28h-85" id="A"/><path fill="#282c33" d="M30 0v-248h33v221h125V0H30" id="B"/><g id="g"><use transform="matrix(0.06172839506172839,0,0,0.06172839506172839,0,0)" xlink:href="#t"/><use transform="matrix(0.06172839506172839,0,0,0.06172839506172839,13.148148148148147,0)" xlink:href="#z"/><use transform="matrix(0.06172839506172839,0,0,0.06172839506172839,27.962962962962962,0)" xlink:href="#y"/><use transform="matrix(0.06172839506172839,0,0,0.06172839506172839,43.95061728395061,0)" xlink:href="#A"/><use transform="matrix(0.06172839506172839,0,0,0.06172839506172839,55.80246913580247,0)" xlink:href="#z"/><use transform="matrix(0.06172839506172839,0,0,0.06172839506172839,70.61728395061728,0)" xlink:href="#B"/><use transform="matrix(0.06172839506172839,0,0,0.06172839506172839,82.96296296296296,0)" xlink:href="#B"/><use transform="matrix(0.06172839506172839,0,0,0.06172839506172839,95.30864197530865,0)" xlink:href="#z"/></g><path fill="#282c33" d="M140-251c81 0 123 46 123 126C263-46 219 4 140 4 59 4 17-45 17-125s42-126 123-126zm0 227c63 0 89-41 89-101s-29-99-89-99c-61 0-89 39-89 99S79-25 140-24" id="C"/><g id="h"><use transform="matrix(0.06172839506172839,0,0,0.06172839506172839,0,0)" xlink:href="#C"/><use transform="matrix(0.06172839506172839,0,0,0.06172839506172839,17.28395061728395,0)" xlink:href="#B"/><use transform="matrix(0.06172839506172839,0,0,0.06172839506172839,29.629629629629626,0)" xlink:href="#r"/><use transform="matrix(0.06172839506172839,0,0,0.06172839506172839,44.44444444444444,0)" xlink:href="#o"/></g><g id="i"><use transform="matrix(0.03703703703703702,0,0,0.03703703703703702,0,0)" xlink:href="#s"/><use transform="matrix(0.03703703703703702,0,0,0,0.03703703703703702,8.888888888888886,0)" xlink:href="#o"/><use transform="matrix(0.03703703703703702,0,0,0,0.03703703703703702,18.481481481481474,0)" xlink:href="#z"/></g><path fill="#282c33" d="M212-179c-10-28-35-45-73-45-59 0-87 40-87 99 0 60 29 101 89 101 43 0 62-24 78-52l27 14C228-24 195 4 139 4 59 4 22-46 18-125c-6-104 99-153 187-111 19 9 31 26 39 46" id="D"/><g id="j"><use transform="matrix(0.03703703703703702,0,0,0,0.03703703703703702,0,0)" xlink:href="#s"/><use transform="matrix(0.03703703703703702,0,0,0,0.03703703703703702,8.888888888888886,0)" xlink:href="#D"/><use transform="matrix(0.03703703703703702,0,0,0,0.03703703703703702,18.481481481481474,0)" xlink:href="#B"/></g><g id="k"><use transform="matrix(0.03703703703703702,0,0,0,0.03703703703703702,0,0)" xlink:href="#v"/><use transform="matrix(0.03703703703703702,0,0,0,0.03703703703703702,8.888888888888886,0)" xlink:href="#D"/><use transform="matrix(0.03703703703703702,0,0,0,0.03703703703703702,18.481481481481474,0)" xlink:href="#D"/></g><path fill="#282c33" d="M195-316c-3 24-8 48-35 47-28-1-64-43-75 0H69c4-23 8-48 36-47s64 44 74 0h16zM190 0L58-211 59 0H30v-248h39L202-35l-2-213h31V0h-41" id="E"/><g id="l"><use transform="matrix(0.03703703703703702,0,0,0,0.03703703703703702,0,0)" xlink:href="#s"/><use transform="matrix(0.03703703703703702,0,0,0,0.03703703703703702,8.888888888888886,0)" xlink:href="#r"/><use transform="matrix(0.03703703703703702,0,0,0,0.03703703703703702,17.77777777777777,0)" xlink:href="#E"/><use transform="matrix(0.03703703703703702,0,0,0,0.03703703703703702,27.37037037037036,0)" xlink:href="#z"/><use transform="matrix(0.03703703703703702,0,0,0,0.03703703703703702,36.259259259259245,0)" xlink:href="#B"/></g><path fill="#282c33" d="M240 0l2-218c-23 76-54 145-80 218h-23L58-218 59 0H30v-248h44l77 211c21-75 51-140 76-211h43V0h-30" id="F"/><path fill="#282c33" d="M109-269c9-18 26-28 38-43h37v5l-55 38h-20zm31 18c81 0 123 46 123 126C263-46 219 4 140 4 59 4 17-45 17-125s42-126 123-126zm0 227c63 0 89-41 89-101s-29-99-89-99c-61 0-89 39-89 99S79-25 140-24" id="G"/><path fill="#282c33" d="M232-93c-1 65-40 97-104 97C67 4 28-28 28-90v-158h33c8 89-33 224 67 224 102 0 64-133 71-224h33v155" id="H"/><g id="m"><use transform="matrix(0.06172839506172839,0,0,0,0.06172839506172839,0,0)" xlink:href="#F"/><use transform="matrix(0.06172839506172839,0,0,0,0.06172839506172839,18.456790123456788,0)" xlink:href="#G"/><use transform="matrix(0.06172839506172839,0,0,0,0.06172839506172839,35.74074074074073,0)" xlink:href="#o"/><use transform="matrix(0.06172839506172839,0,0,0,0.06172839506172839,51.728395061728385,0)" xlink:href="#H"/><use transform="matrix(0.06172839506172839,0,0,0,0.06172839506172839,67.71604938271604,0)" xlink:href="#B"/><use transform="matrix(0.06172839506172839,0,0,0,0.06172839506172839,80.06172839506172,0)" xlink:href="#C"/></g><path fill="#282c33" d="M233-177c-1 41-23 64-60 70L243 0h-38l-65-103H63V0H30v-248c88 3 205-21 203 71zM63-129c60-2 137 13 137-47 0-61-80-42-137-45v92" id="I"/><g id="n"><use transform="matrix(0.06172839506172839,0,0,0,0.06172839506172839,0,0)" xlink:href="#B"/><use transform="matrix(0.06172839506172839,0,0,0,0.06172839506172839,12.345679012345679,0)" xlink:href="#o"/><use transform="matrix(0.06172839506172839,0,0,0,0.06172839506172839,28.333333333333332,0)" xlink:href="#I"/></g></defs></g></svg>
